<svg xmlns="http://www.w3.org/2000/svg" viewBox="0 0 1600 900" width="1600" height="900"><defs><filter id="sh" x="-20%" y="-20%" width="140%" height="140%"><feDropShadow dx="0" dy="18" stdDeviation="26" flood-color="#1a1a1a" flood-opacity="0.18"/></filter></defs><rect width="1600" height="900" fill="#F7F6F3"/><text x="800.0" y="120" text-anchor="middle" font-family="'Courier New',monospace" font-size="20" letter-spacing="8" fill="#a39d92">DESIGN OPERATING SYSTEM</text><rect x="180" y="170" width="1240" height="480" rx="26" fill="#14161d" filter="url(#sh)"/><text x="230" y="240" font-family="'Courier New',monospace" font-size="26" letter-spacing="6" fill="#ffffff">&#9992;  DEPARTURES</text><text x="1370" y="240" text-anchor="end" font-family="'Courier New',monospace" font-size="22" letter-spacing="4" fill="#8b93a3">14:21</text><text x="230" y="288" font-family="'Courier New',monospace" font-size="14" letter-spacing="5" fill="#5d6373">FLIGHT   DESTINATION</text><text x="1370" y="288" text-anchor="end" font-family="'Courier New',monospace" font-size="14" letter-spacing="5" fill="#5d6373">GATE  REMARK</text><rect x="220" y="331" width="34" height="48" rx="4" fill="#1e2330" stroke="#0c0e14" stroke-width="1"/><text x="237.0" y="363" text-anchor="middle" font-family="'Courier New',monospace" font-size="22" font-weight="bold" fill="#ffffff">E</text><rect x="260" y="331" width="34" height="48" rx="4" fill="#1e2330" stroke="#0c0e14" stroke-width="1"/><text x="277.0" y="363" text-anchor="middle" font-family="'Courier New',monospace" font-size="22" font-weight="bold" fill="#ffffff">M</text><rect x="300" y="331" width="34" height="48" rx="4" fill="#1e2330" stroke="#0c0e14" stroke-width="1"/><text x="317.0" y="363" text-anchor="middle" font-family="'Courier New',monospace" font-size="22" font-weight="bold" fill="#ffffff">-</text><rect x="340" y="331" width="34" height="48" rx="4" fill="#1e2330" stroke="#0c0e14" stroke-width="1"/><text x="357.0" y="363" text-anchor="middle" font-family="'Courier New',monospace" font-size="22" font-weight="bold" fill="#ffffff">0</text><rect x="380" y="331" width="34" height="48" rx="4" fill="#1e2330" stroke="#0c0e14" stroke-width="1"/><text x="397.0" y="363" text-anchor="middle" font-family="'Courier New',monospace" font-size="22" font-weight="bold" fill="#ffffff">1</text><rect x="420" y="331" width="34" height="48" rx="4" fill="#1e2330" stroke="#0c0e14" stroke-width="1"/><rect x="460" y="331" width="34" height="48" rx="4" fill="#1e2330" stroke="#0c0e14" stroke-width="1"/><rect x="500" y="331" width="34" height="48" rx="4" fill="#1e2330" stroke="#0c0e14" stroke-width="1"/><text x="517.0" y="363" text-anchor="middle" font-family="'Courier New',monospace" font-size="22" font-weight="bold" fill="#e6dcc1">C</text><rect x="540" y="331" width="34" height="48" rx="4" fill="#1e2330" stroke="#0c0e14" stroke-width="1"/><text x="557.0" y="363" text-anchor="middle" font-family="'Courier New',monospace" font-size="22" font-weight="bold" fill="#e6dcc1">R</text><rect x="580" y="331" width="34" height="48" rx="4" fill="#1e2330" stroke="#0c0e14" stroke-width="1"/><text x="597.0" y="363" text-anchor="middle" font-family="'Courier New',monospace" font-size="22" font-weight="bold" fill="#e6dcc1">A</text><rect x="620" y="331" width="34" height="48" rx="4" fill="#1e2330" stroke="#0c0e14" stroke-width="1"/><text x="637.0" y="363" text-anchor="middle" font-family="'Courier New',monospace" font-size="22" font-weight="bold" fill="#e6dcc1">F</text><rect x="660" y="331" width="34" height="48" rx="4" fill="#1e2330" stroke="#0c0e14" stroke-width="1"/><text x="677.0" y="363" text-anchor="middle" font-family="'Courier New',monospace" font-size="22" font-weight="bold" fill="#e6dcc1">T</text><rect x="700" y="331" width="34" height="48" rx="4" fill="#1e2330" stroke="#0c0e14" stroke-width="1"/><rect x="740" y="331" width="34" height="48" rx="4" fill="#1e2330" stroke="#0c0e14" stroke-width="1"/><text x="757.0" y="363" text-anchor="middle" font-family="'Courier New',monospace" font-size="22" font-weight="bold" fill="#e6dcc1">I</text><rect x="780" y="331" width="34" height="48" rx="4" fill="#1e2330" stroke="#0c0e14" stroke-width="1"/><text x="797.0" y="363" text-anchor="middle" font-family="'Courier New',monospace" font-size="22" font-weight="bold" fill="#e6dcc1">N</text><rect x="820" y="331" width="34" height="48" rx="4" fill="#1e2330" stroke="#0c0e14" stroke-width="1"/><rect x="860" y="331" width="34" height="48" rx="4" fill="#1e2330" stroke="#0c0e14" stroke-width="1"/><text x="877.0" y="363" text-anchor="middle" font-family="'Courier New',monospace" font-size="22" font-weight="bold" fill="#e6dcc1">S</text><rect x="900" y="331" width="34" height="48" rx="4" fill="#1e2330" stroke="#0c0e14" stroke-width="1"/><text x="917.0" y="363" text-anchor="middle" font-family="'Courier New',monospace" font-size="22" font-weight="bold" fill="#e6dcc1">Y</text><rect x="940" y="331" width="34" height="48" rx="4" fill="#1e2330" stroke="#0c0e14" stroke-width="1"/><text x="957.0" y="363" text-anchor="middle" font-family="'Courier New',monospace" font-size="22" font-weight="bold" fill="#e6dcc1">S</text><rect x="980" y="331" width="34" height="48" rx="4" fill="#1e2330" stroke="#0c0e14" stroke-width="1"/><text x="997.0" y="363" text-anchor="middle" font-family="'Courier New',monospace" font-size="22" font-weight="bold" fill="#e6dcc1">T</text><rect x="1020" y="331" width="34" height="48" rx="4" fill="#1e2330" stroke="#0c0e14" stroke-width="1"/><text x="1037.0" y="363" text-anchor="middle" font-family="'Courier New',monospace" font-size="22" font-weight="bold" fill="#e6dcc1">E</text><rect x="1060" y="331" width="34" height="48" rx="4" fill="#1e2330" stroke="#0c0e14" stroke-width="1"/><text x="1077.0" y="363" text-anchor="middle" font-family="'Courier New',monospace" font-size="22" font-weight="bold" fill="#e6dcc1">M</text><rect x="1100" y="331" width="34" height="48" rx="4" fill="#1e2330" stroke="#0c0e14" stroke-width="1"/><text x="1117.0" y="363" text-anchor="middle" font-family="'Courier New',monospace" font-size="22" font-weight="bold" fill="#e6dcc1">S</text><rect x="1140" y="331" width="34" height="48" rx="4" fill="#1e2330" stroke="#0c0e14" stroke-width="1"/><rect x="1186" y="331" width="34" height="48" rx="4" fill="#16241a" stroke="#0c0e14" stroke-width="1"/><text x="1203.0" y="363" text-anchor="middle" font-family="'Courier New',monospace" font-size="22" font-weight="bold" fill="#7fc07a">B</text><rect x="1226" y="331" width="34" height="48" rx="4" fill="#16241a" stroke="#0c0e14" stroke-width="1"/><text x="1243.0" y="363" text-anchor="middle" font-family="'Courier New',monospace" font-size="22" font-weight="bold" fill="#7fc07a">R</text><rect x="1266" y="331" width="34" height="48" rx="4" fill="#16241a" stroke="#0c0e14" stroke-width="1"/><text x="1283.0" y="363" text-anchor="middle" font-family="'Courier New',monospace" font-size="22" font-weight="bold" fill="#7fc07a">D</text><rect x="1306" y="331" width="34" height="48" rx="4" fill="#16241a" stroke="#0c0e14" stroke-width="1"/><text x="1323.0" y="363" text-anchor="middle" font-family="'Courier New',monospace" font-size="22" font-weight="bold" fill="#7fc07a">N</text><rect x="1346" y="331" width="34" height="48" rx="4" fill="#16241a" stroke="#0c0e14" stroke-width="1"/><text x="1363.0" y="363" text-anchor="middle" font-family="'Courier New',monospace" font-size="22" font-weight="bold" fill="#7fc07a">G</text><rect x="220" y="401" width="34" height="48" rx="4" fill="#1e2330" stroke="#0c0e14" stroke-width="1"/><text x="237.0" y="433" text-anchor="middle" font-family="'Courier New',monospace" font-size="22" font-weight="bold" fill="#ffffff">E</text><rect x="260" y="401" width="34" height="48" rx="4" fill="#1e2330" stroke="#0c0e14" stroke-width="1"/><text x="277.0" y="433" text-anchor="middle" font-family="'Courier New',monospace" font-size="22" font-weight="bold" fill="#ffffff">M</text><rect x="300" y="401" width="34" height="48" rx="4" fill="#1e2330" stroke="#0c0e14" stroke-width="1"/><text x="317.0" y="433" text-anchor="middle" font-family="'Courier New',monospace" font-size="22" font-weight="bold" fill="#ffffff">-</text><rect x="340" y="401" width="34" height="48" rx="4" fill="#1e2330" stroke="#0c0e14" stroke-width="1"/><text x="357.0" y="433" text-anchor="middle" font-family="'Courier New',monospace" font-size="22" font-weight="bold" fill="#ffffff">0</text><rect x="380" y="401" width="34" height="48" rx="4" fill="#1e2330" stroke="#0c0e14" stroke-width="1"/><text x="397.0" y="433" text-anchor="middle" font-family="'Courier New',monospace" font-size="22" font-weight="bold" fill="#ffffff">2</text><rect x="420" y="401" width="34" height="48" rx="4" fill="#1e2330" stroke="#0c0e14" stroke-width="1"/><rect x="460" y="401" width="34" height="48" rx="4" fill="#1e2330" stroke="#0c0e14" stroke-width="1"/><rect x="500" y="401" width="34" height="48" rx="4" fill="#1e2330" stroke="#0c0e14" stroke-width="1"/><text x="517.0" y="433" text-anchor="middle" font-family="'Courier New',monospace" font-size="22" font-weight="bold" fill="#e6dcc1">S</text><rect x="540" y="401" width="34" height="48" rx="4" fill="#1e2330" stroke="#0c0e14" stroke-width="1"/><text x="557.0" y="433" text-anchor="middle" font-family="'Courier New',monospace" font-size="22" font-weight="bold" fill="#e6dcc1">E</text><rect x="580" y="401" width="34" height="48" rx="4" fill="#1e2330" stroke="#0c0e14" stroke-width="1"/><text x="597.0" y="433" text-anchor="middle" font-family="'Courier New',monospace" font-size="22" font-weight="bold" fill="#e6dcc1">R</text><rect x="620" y="401" width="34" height="48" rx="4" fill="#1e2330" stroke="#0c0e14" stroke-width="1"/><text x="637.0" y="433" text-anchor="middle" font-family="'Courier New',monospace" font-size="22" font-weight="bold" fill="#e6dcc1">V</text><rect x="660" y="401" width="34" height="48" rx="4" fill="#1e2330" stroke="#0c0e14" stroke-width="1"/><text x="677.0" y="433" text-anchor="middle" font-family="'Courier New',monospace" font-size="22" font-weight="bold" fill="#e6dcc1">I</text><rect x="700" y="401" width="34" height="48" rx="4" fill="#1e2330" stroke="#0c0e14" stroke-width="1"/><text x="717.0" y="433" text-anchor="middle" font-family="'Courier New',monospace" font-size="22" font-weight="bold" fill="#e6dcc1">C</text><rect x="740" y="401" width="34" height="48" rx="4" fill="#1e2330" stroke="#0c0e14" stroke-width="1"/><text x="757.0" y="433" text-anchor="middle" font-family="'Courier New',monospace" font-size="22" font-weight="bold" fill="#e6dcc1">E</text><rect x="780" y="401" width="34" height="48" rx="4" fill="#1e2330" stroke="#0c0e14" stroke-width="1"/><rect x="820" y="401" width="34" height="48" rx="4" fill="#1e2330" stroke="#0c0e14" stroke-width="1"/><text x="837.0" y="433" text-anchor="middle" font-family="'Courier New',monospace" font-size="22" font-weight="bold" fill="#e6dcc1">O</text><rect x="860" y="401" width="34" height="48" rx="4" fill="#1e2330" stroke="#0c0e14" stroke-width="1"/><text x="877.0" y="433" text-anchor="middle" font-family="'Courier New',monospace" font-size="22" font-weight="bold" fill="#e6dcc1">F</text><rect x="900" y="401" width="34" height="48" rx="4" fill="#1e2330" stroke="#0c0e14" stroke-width="1"/><rect x="940" y="401" width="34" height="48" rx="4" fill="#1e2330" stroke="#0c0e14" stroke-width="1"/><text x="957.0" y="433" text-anchor="middle" font-family="'Courier New',monospace" font-size="22" font-weight="bold" fill="#e6dcc1">H</text><rect x="980" y="401" width="34" height="48" rx="4" fill="#1e2330" stroke="#0c0e14" stroke-width="1"/><text x="997.0" y="433" text-anchor="middle" font-family="'Courier New',monospace" font-size="22" font-weight="bold" fill="#e6dcc1">U</text><rect x="1020" y="401" width="34" height="48" rx="4" fill="#1e2330" stroke="#0c0e14" stroke-width="1"/><text x="1037.0" y="433" text-anchor="middle" font-family="'Courier New',monospace" font-size="22" font-weight="bold" fill="#e6dcc1">M</text><rect x="1060" y="401" width="34" height="48" rx="4" fill="#1e2330" stroke="#0c0e14" stroke-width="1"/><text x="1077.0" y="433" text-anchor="middle" font-family="'Courier New',monospace" font-size="22" font-weight="bold" fill="#e6dcc1">A</text><rect x="1100" y="401" width="34" height="48" rx="4" fill="#1e2330" stroke="#0c0e14" stroke-width="1"/><text x="1117.0" y="433" text-anchor="middle" font-family="'Courier New',monospace" font-size="22" font-weight="bold" fill="#e6dcc1">N</text><rect x="1140" y="401" width="34" height="48" rx="4" fill="#1e2330" stroke="#0c0e14" stroke-width="1"/><text x="1157.0" y="433" text-anchor="middle" font-family="'Courier New',monospace" font-size="22" font-weight="bold" fill="#e6dcc1">S</text><rect x="1186" y="401" width="34" height="48" rx="4" fill="#16241a" stroke="#0c0e14" stroke-width="1"/><text x="1203.0" y="433" text-anchor="middle" font-family="'Courier New',monospace" font-size="22" font-weight="bold" fill="#7fc07a">O</text><rect x="1226" y="401" width="34" height="48" rx="4" fill="#16241a" stroke="#0c0e14" stroke-width="1"/><text x="1243.0" y="433" text-anchor="middle" font-family="'Courier New',monospace" font-size="22" font-weight="bold" fill="#7fc07a">N</text><rect x="1266" y="401" width="34" height="48" rx="4" fill="#16241a" stroke="#0c0e14" stroke-width="1"/><text x="1283.0" y="433" text-anchor="middle" font-family="'Courier New',monospace" font-size="22" font-weight="bold" fill="#7fc07a">T</text><rect x="1306" y="401" width="34" height="48" rx="4" fill="#16241a" stroke="#0c0e14" stroke-width="1"/><text x="1323.0" y="433" text-anchor="middle" font-family="'Courier New',monospace" font-size="22" font-weight="bold" fill="#7fc07a">M</text><rect x="1346" y="401" width="34" height="48" rx="4" fill="#16241a" stroke="#0c0e14" stroke-width="1"/><text x="1363.0" y="433" text-anchor="middle" font-family="'Courier New',monospace" font-size="22" font-weight="bold" fill="#7fc07a">E</text><rect x="220" y="471" width="34" height="48" rx="4" fill="#1e2330" stroke="#0c0e14" stroke-width="1"/><text x="237.0" y="503" text-anchor="middle" font-family="'Courier New',monospace" font-size="22" font-weight="bold" fill="#ffffff">E</text><rect x="260" y="471" width="34" height="48" rx="4" fill="#1e2330" stroke="#0c0e14" stroke-width="1"/><text x="277.0" y="503" text-anchor="middle" font-family="'Courier New',monospace" font-size="22" font-weight="bold" fill="#ffffff">M</text><rect x="300" y="471" width="34" height="48" rx="4" fill="#1e2330" stroke="#0c0e14" stroke-width="1"/><text x="317.0" y="503" text-anchor="middle" font-family="'Courier New',monospace" font-size="22" font-weight="bold" fill="#ffffff">-</text><rect x="340" y="471" width="34" height="48" rx="4" fill="#1e2330" stroke="#0c0e14" stroke-width="1"/><text x="357.0" y="503" text-anchor="middle" font-family="'Courier New',monospace" font-size="22" font-weight="bold" fill="#ffffff">0</text><rect x="380" y="471" width="34" height="48" rx="4" fill="#1e2330" stroke="#0c0e14" stroke-width="1"/><text x="397.0" y="503" text-anchor="middle" font-family="'Courier New',monospace" font-size="22" font-weight="bold" fill="#ffffff">3</text><rect x="420" y="471" width="34" height="48" rx="4" fill="#1e2330" stroke="#0c0e14" stroke-width="1"/><rect x="460" y="471" width="34" height="48" rx="4" fill="#1e2330" stroke="#0c0e14" stroke-width="1"/><rect x="500" y="471" width="34" height="48" rx="4" fill="#1e2330" stroke="#0c0e14" stroke-width="1"/><text x="517.0" y="503" text-anchor="middle" font-family="'Courier New',monospace" font-size="22" font-weight="bold" fill="#e6dcc1">T</text><rect x="540" y="471" width="34" height="48" rx="4" fill="#1e2330" stroke="#0c0e14" stroke-width="1"/><text x="557.0" y="503" text-anchor="middle" font-family="'Courier New',monospace" font-size="22" font-weight="bold" fill="#e6dcc1">H</text><rect x="580" y="471" width="34" height="48" rx="4" fill="#1e2330" stroke="#0c0e14" stroke-width="1"/><text x="597.0" y="503" text-anchor="middle" font-family="'Courier New',monospace" font-size="22" font-weight="bold" fill="#e6dcc1">E</text><rect x="620" y="471" width="34" height="48" rx="4" fill="#1e2330" stroke="#0c0e14" stroke-width="1"/><rect x="660" y="471" width="34" height="48" rx="4" fill="#1e2330" stroke="#0c0e14" stroke-width="1"/><text x="677.0" y="503" text-anchor="middle" font-family="'Courier New',monospace" font-size="22" font-weight="bold" fill="#e6dcc1">U</text><rect x="700" y="471" width="34" height="48" rx="4" fill="#1e2330" stroke="#0c0e14" stroke-width="1"/><text x="717.0" y="503" text-anchor="middle" font-family="'Courier New',monospace" font-size="22" font-weight="bold" fill="#e6dcc1">X</text><rect x="740" y="471" width="34" height="48" rx="4" fill="#1e2330" stroke="#0c0e14" stroke-width="1"/><rect x="780" y="471" width="34" height="48" rx="4" fill="#1e2330" stroke="#0c0e14" stroke-width="1"/><text x="797.0" y="503" text-anchor="middle" font-family="'Courier New',monospace" font-size="22" font-weight="bold" fill="#e6dcc1">O</text><rect x="820" y="471" width="34" height="48" rx="4" fill="#1e2330" stroke="#0c0e14" stroke-width="1"/><text x="837.0" y="503" text-anchor="middle" font-family="'Courier New',monospace" font-size="22" font-weight="bold" fill="#e6dcc1">F</text><rect x="860" y="471" width="34" height="48" rx="4" fill="#1e2330" stroke="#0c0e14" stroke-width="1"/><rect x="900" y="471" width="34" height="48" rx="4" fill="#1e2330" stroke="#0c0e14" stroke-width="1"/><text x="917.0" y="503" text-anchor="middle" font-family="'Courier New',monospace" font-size="22" font-weight="bold" fill="#e6dcc1">D</text><rect x="940" y="471" width="34" height="48" rx="4" fill="#1e2330" stroke="#0c0e14" stroke-width="1"/><text x="957.0" y="503" text-anchor="middle" font-family="'Courier New',monospace" font-size="22" font-weight="bold" fill="#e6dcc1">I</text><rect x="980" y="471" width="34" height="48" rx="4" fill="#1e2330" stroke="#0c0e14" stroke-width="1"/><text x="997.0" y="503" text-anchor="middle" font-family="'Courier New',monospace" font-size="22" font-weight="bold" fill="#e6dcc1">G</text><rect x="1020" y="471" width="34" height="48" rx="4" fill="#1e2330" stroke="#0c0e14" stroke-width="1"/><text x="1037.0" y="503" text-anchor="middle" font-family="'Courier New',monospace" font-size="22" font-weight="bold" fill="#e6dcc1">N</text><rect x="1060" y="471" width="34" height="48" rx="4" fill="#1e2330" stroke="#0c0e14" stroke-width="1"/><text x="1077.0" y="503" text-anchor="middle" font-family="'Courier New',monospace" font-size="22" font-weight="bold" fill="#e6dcc1">I</text><rect x="1100" y="471" width="34" height="48" rx="4" fill="#1e2330" stroke="#0c0e14" stroke-width="1"/><text x="1117.0" y="503" text-anchor="middle" font-family="'Courier New',monospace" font-size="22" font-weight="bold" fill="#e6dcc1">T</text><rect x="1140" y="471" width="34" height="48" rx="4" fill="#1e2330" stroke="#0c0e14" stroke-width="1"/><text x="1157.0" y="503" text-anchor="middle" font-family="'Courier New',monospace" font-size="22" font-weight="bold" fill="#e6dcc1">Y</text><rect x="1186" y="471" width="34" height="48" rx="4" fill="#16241a" stroke="#0c0e14" stroke-width="1"/><text x="1203.0" y="503" text-anchor="middle" font-family="'Courier New',monospace" font-size="22" font-weight="bold" fill="#7fc07a">O</text><rect x="1226" y="471" width="34" height="48" rx="4" fill="#16241a" stroke="#0c0e14" stroke-width="1"/><text x="1243.0" y="503" text-anchor="middle" font-family="'Courier New',monospace" font-size="22" font-weight="bold" fill="#7fc07a">N</text><rect x="1266" y="471" width="34" height="48" rx="4" fill="#16241a" stroke="#0c0e14" stroke-width="1"/><text x="1283.0" y="503" text-anchor="middle" font-family="'Courier New',monospace" font-size="22" font-weight="bold" fill="#7fc07a">T</text><rect x="1306" y="471" width="34" height="48" rx="4" fill="#16241a" stroke="#0c0e14" stroke-width="1"/><text x="1323.0" y="503" text-anchor="middle" font-family="'Courier New',monospace" font-size="22" font-weight="bold" fill="#7fc07a">M</text><rect x="1346" y="471" width="34" height="48" rx="4" fill="#16241a" stroke="#0c0e14" stroke-width="1"/><text x="1363.0" y="503" text-anchor="middle" font-family="'Courier New',monospace" font-size="22" font-weight="bold" fill="#7fc07a">E</text><path d="M 784.0 720 L 800.0 752 L 816.0 720 L 800.0 736 Z" fill="#E0531F"/></svg>